<svg xmlns="http://www.w3.org/2000/svg" xmlns:xlink="http://www.w3.org/1999/xlink" width="1621" height="300" viewBox="0 0 1621 300">
    <defs>
        <path id="a" d="M0 299.62h1620.84V0H0z"/>
    </defs>
    <g fill="none" fill-rule="evenodd">
        <path fill="#FFF" d="M45.633 85.924c-1.825 0-3.042 1.216-3.042 3.042v36.507c0 1.825 1.217 3.04 3.042 3.04h27.38c11.56 0 21.295-9.43 21.295-21.294 0-11.56-9.735-21.295-21.296-21.295H45.633zm-3.042 164.279c0 3.346-2.738 6.083-6.085 6.083H6.085c-3.347 0-6.085-2.737-6.085-6.083V49.417c0-3.346 2.738-6.084 6.085-6.084h66.927c34.986 0 63.886 28.9 63.886 63.886 0 35.29-28.9 63.886-63.886 63.886H45.633c-1.825 0-3.042 1.217-3.042 3.043v76.055zM200.176 192.4c0 13.386 10.952 24.338 28.9 24.338 18.558 0 29.51-10.952 29.51-24.338V49.418c0-3.346 2.737-6.085 6.084-6.085h30.726c3.347 0 6.085 2.739 6.085 6.085V192.4c0 36.811-30.423 67.233-72.405 67.233-41.373 0-71.795-30.422-71.795-67.233V49.418c0-3.346 2.737-6.085 6.084-6.085h30.727c3.346 0 6.084 2.739 6.084 6.085V192.4zM465.455 250.202c0 3.347-2.738 6.085-6.085 6.085h-35.897c-5.172 0-7.302-2.738-8.214-5.172l-41.375-106.78c-.608-1.826-2.737-1.218-2.737.608v105.26c0 3.346-2.738 6.084-6.085 6.084H334.64c-3.347 0-6.085-2.738-6.085-6.085V49.418c0-3.347 2.738-6.086 6.085-6.086h36.203c4.563 0 6.693 2.74 7.605 5.477l41.678 115.604c.609 1.825 2.738 1.216 2.738-.608V49.418c0-3.347 2.737-6.086 6.084-6.086h30.422c3.347 0 6.085 2.74 6.085 6.086v200.784zM596.108 189.968c.305-3.347 2.738-6.085 6.085-6.085h30.421c3.347 0 6.085 2.738 6.085 6.084 0 40.766-30.422 69.666-72.405 69.666-41.982 0-68.144-30.726-72.404-67.233-3.042-25.555-3.042-59.627 0-85.18 4.26-36.508 30.422-67.233 72.404-67.233 41.983 0 72.405 28.9 72.405 69.666 0 3.347-2.738 6.085-6.085 6.085h-30.421c-3.347 0-5.78-2.738-6.085-6.085-1.217-15.82-12.473-26.772-29.814-26.772-18.556 0-27.988 10.952-29.509 24.338-3.042 25.554-3.042 59.626 0 85.181 1.52 13.386 10.953 24.338 29.51 24.338 17.34 0 28.596-10.952 29.813-26.77M704.105 125.473c0 1.825 1.217 3.041 3.043 3.041h46.24c1.826 0 3.043-1.216 3.043-3.04V49.417c0-3.347 2.737-6.086 6.084-6.086h30.422c3.347 0 6.085 2.74 6.085 6.086v200.784c0 3.347-2.738 6.085-6.085 6.085h-30.422c-3.347 0-6.084-2.738-6.084-6.085v-76.055c0-1.824-1.217-3.042-3.042-3.042h-46.241c-1.826 0-3.043 1.218-3.043 3.042v76.055c0 3.347-4.258 6.085-7.604 6.085H667.6c-3.347 0-6.085-2.738-6.085-6.085V49.418c0-3.347 2.738-6.086 6.085-6.086h30.421c3.346 0 6.084 2.74 6.084 6.086v76.055zM928.62 189.968c.303-3.347 2.737-6.085 6.084-6.085h30.421c3.347 0 6.085 2.738 6.085 6.084 0 40.766-30.422 69.666-72.405 69.666-41.982 0-68.144-30.726-72.405-67.233-3.04-25.555-3.04-59.627 0-85.18 4.26-36.508 30.423-67.233 72.405-67.233 41.983 0 72.405 28.9 72.405 69.666 0 3.347-2.738 6.085-6.085 6.085h-30.421c-3.347 0-5.78-2.738-6.085-6.085-1.217-15.82-12.473-26.772-29.814-26.772-18.557 0-27.989 10.952-29.509 24.338-3.042 25.554-3.042 59.626 0 85.181 1.52 13.386 10.952 24.338 29.51 24.338 17.34 0 28.596-10.952 29.813-26.77M1036.455 107.22c-3.042 25.553-3.042 59.625 0 85.18 1.521 13.386 10.952 24.338 29.51 24.338s27.989-10.952 29.509-24.338c3.042-25.555 3.042-59.627 0-85.18-1.52-13.387-10.951-24.339-29.509-24.339s-27.989 10.952-29.51 24.338m101.915 0c3.041 25.554 3.041 59.626 0 85.181-4.26 36.507-30.423 67.233-72.405 67.233-41.983 0-68.145-30.726-72.403-67.233-3.044-25.555-3.044-59.627 0-85.18 4.258-36.508 30.42-67.233 72.403-67.233 41.982 0 68.145 30.725 72.405 67.232M1234.037 213.696c13.994 0 23.425-11.256 24.946-24.642 3.043-25.555 3.043-52.933 0-78.488-1.52-13.386-10.952-24.642-24.946-24.642H1209.7c-1.826 0-3.042 1.216-3.042 3.042v121.688c0 1.825 1.216 3.042 3.042 3.042h24.337zm-63.886 42.59c-3.346 0-6.084-2.737-6.084-6.083V49.417c0-3.346 2.738-6.084 6.084-6.084h63.886c37.42 0 63.582 30.727 67.841 67.233 3.042 25.555 3.042 52.933 0 78.488-4.259 36.507-30.421 67.232-67.841 67.232h-63.886zM1370.47 125.473c0 1.825 1.217 3.041 3.042 3.041h68.45c3.346 0 6.083 2.738 6.083 6.085v30.421c0 3.347-2.737 6.085-6.083 6.085h-68.45c-1.825 0-3.042 1.218-3.042 3.042v36.507c0 1.824 1.217 3.042 3.042 3.042h72.1c3.347 0 6.085 2.737 6.085 6.084v30.422c0 3.347-2.738 6.085-6.085 6.085h-111.65c-3.346 0-6.083-2.738-6.083-6.085V49.418c0-3.347 2.737-6.086 6.084-6.086h110.431c3.347 0 6.086 2.74 6.086 6.086V79.84c0 3.347-2.74 6.085-6.086 6.085h-70.882c-1.825 0-3.042 1.216-3.042 3.04v36.508z"/>
        <mask id="b" fill="#fff">
            <use xlink:href="#a"/>
        </mask>
        <path fill="#7EFF83" d="M1497.022 299.62h123.818V0h-123.818z" mask="url(#b)"/>
    </g>
</svg>
